<svg width="200" height="200" viewBox="0 0 200 200" fill="none" xmlns="http://www.w3.org/2000/svg">
<g filter="url(#filter0_d_939_2575)">
<rect x="55" y="55" width="90" height="90" rx="10" fill="white"/>
</g>
<g clip-path="url(#clip0_939_2575)">
<path d="M108.5 92.9177C108.5 93.1979 108.417 93.4718 108.261 93.7047C108.106 93.9377 107.884 94.1193 107.625 94.2265C107.367 94.3337 107.082 94.3618 106.807 94.3071C106.532 94.2525 106.28 94.1175 106.082 93.9194C105.883 93.7213 105.749 93.4689 105.694 93.1941C105.639 92.9192 105.667 92.6344 105.775 92.3755C105.882 92.1167 106.063 91.8954 106.296 91.7398C106.529 91.5841 106.803 91.501 107.083 91.501C107.459 91.501 107.819 91.6503 108.085 91.9159C108.351 92.1816 108.5 92.542 108.5 92.9177ZM102.833 95.751C102.553 95.751 102.279 95.8341 102.046 95.9898C101.813 96.1454 101.632 96.3667 101.525 96.6255C101.417 96.8844 101.389 97.1692 101.444 97.4441C101.499 97.7189 101.633 97.9713 101.832 98.1694C102.03 98.3675 102.282 98.5025 102.557 98.5571C102.832 98.6118 103.117 98.5837 103.375 98.4765C103.634 98.3693 103.856 98.1877 104.011 97.9547C104.167 97.7218 104.25 97.4479 104.25 97.1677C104.25 96.792 104.101 96.4316 103.835 96.1659C103.569 95.9003 103.209 95.751 102.833 95.751ZM98.5833 100.001C98.3031 100.001 98.0292 100.084 97.7963 100.24C97.5633 100.395 97.3817 100.617 97.2745 100.876C97.1673 101.134 97.1392 101.419 97.1939 101.694C97.2486 101.969 97.3835 102.221 97.5816 102.419C97.7797 102.618 98.0322 102.752 98.307 102.807C98.5818 102.862 98.8666 102.834 99.1255 102.727C99.3843 102.619 99.6056 102.438 99.7613 102.205C99.9169 101.972 100 101.698 100 101.418C100 101.042 99.8507 100.682 99.5851 100.416C99.3194 100.15 98.9591 100.001 98.5833 100.001ZM116.082 83.919C116.504 84.3373 116.797 84.8682 116.926 85.4484C117.056 86.0286 117.015 86.6336 116.81 87.1915L116.704 87.4904C114.576 93.3951 112.535 99.0093 108.5 103.996V104.251C108.494 106.669 107.928 109.053 106.846 111.216C105.765 113.379 104.197 115.262 102.267 116.718L101.887 117.001H95.75V111.921L92.9167 109.088L89.6683 112.336L87.6651 110.333L90.9135 107.084L88.0802 104.251H83V97.791L83.2833 97.4142C84.7537 95.5218 86.6477 94.001 88.813 92.974C90.9782 91.947 93.3543 91.4425 95.75 91.501H96.005C100.992 87.4678 106.602 85.4263 112.504 83.2999L112.81 83.1908C113.367 82.9858 113.972 82.9455 114.553 83.0746C115.133 83.2037 115.664 83.4968 116.082 83.919V83.919ZM85.8333 101.418H87.8436C89.2287 99.0283 90.8321 96.7723 92.6333 94.6786C89.9717 95.2292 87.5749 96.6648 85.8333 98.7515V101.418ZM105.242 107.444C103.17 109.214 100.941 110.791 98.5833 112.157V114.168H100.931C103.047 112.443 104.557 110.087 105.242 107.444V107.444ZM114.077 85.9236C114.04 85.8816 113.99 85.8525 113.935 85.8403C113.879 85.8281 113.822 85.8334 113.77 85.8556L113.465 85.9661C106.603 88.4382 100.677 90.5745 95.5743 95.6759C93.6064 97.783 91.8832 100.106 90.4375 102.601L97.4004 109.565C99.8945 108.118 102.217 106.394 104.325 104.427C109.425 99.3267 111.564 93.3951 114.038 86.5299L114.145 86.231C114.167 86.179 114.173 86.1215 114.16 86.0665C114.148 86.0114 114.119 85.9615 114.077 85.9236V85.9236Z" fill="url(#paint0_linear_939_2575)"/>
</g>
<defs>
<filter id="filter0_d_939_2575" x="0" y="0" width="200" height="200" filterUnits="userSpaceOnUse" color-interpolation-filters="sRGB">
<feFlood flood-opacity="0" result="BackgroundImageFix"/>
<feColorMatrix in="SourceAlpha" type="matrix" values="0 0 0 0 0 0 0 0 0 0 0 0 0 0 0 0 0 0 127 0" result="hardAlpha"/>
<feMorphology radius="4" operator="erode" in="SourceAlpha" result="effect1_dropShadow_939_2575"/>
<feOffset/>
<feGaussianBlur stdDeviation="29.5"/>
<feComposite in2="hardAlpha" operator="out"/>
<feColorMatrix type="matrix" values="0 0 0 0 0.984314 0 0 0 0 0.909804 0 0 0 0 0.796078 0 0 0 1 0"/>
<feBlend mode="normal" in2="BackgroundImageFix" result="effect1_dropShadow_939_2575"/>
<feBlend mode="normal" in="SourceGraphic" in2="effect1_dropShadow_939_2575" result="shape"/>
</filter>
<linearGradient id="paint0_linear_939_2575" x1="100" y1="83.0005" x2="100" y2="117.001" gradientUnits="userSpaceOnUse">
<stop stop-color="#F4B95F"/>
<stop offset="1" stop-color="#4D4D4D"/>
</linearGradient>
<clipPath id="clip0_939_2575">
<rect width="34" height="34" fill="white" transform="translate(83 83)"/>
</clipPath>
</defs>
</svg>
